PathFileType	4	(X/Y/Z)	/Users/visionmauri/4_1_1_f_Sports2D/4_1_1_f_Sports2D_px_person00.trc
DataRate	CameraRate	NumFrames	NumMarkers	Units	OrigDataRate	OrigDataStartFrame	OrigNumFrames
30.0	30.0	6	22	m	30.0	266	355
Frame#	Time	Hip			RHip			RKnee			RAnkle			RBigToe			RSmallToe			RHeel			LHip			LKnee			LAnkle			LBigToe			LSmallToe			LHeel			Neck			Head			Nose			RShoulder			RElbow			RWrist			LShoulder			LElbow			LWrist			
		X1	Y1	Z1	X2	Y2	Z2	X3	Y3	Z3	X4	Y4	Z4	X5	Y5	Z5	X6	Y6	Z6	X7	Y7	Z7	X8	Y8	Z8	X9	Y9	Z9	X10	Y10	Z10	X11	Y11	Z11	X12	Y12	Z12	X13	Y13	Z13	X14	Y14	Z14	X15	Y15	Z15	X16	Y16	Z16	X17	Y17	Z17	X18	Y18	Z18	X19	Y19	Z19	X20	Y20	Z20	X21	Y21	Z21	X22	Y22	Z22
266	8.891713747645952	612.6176414124827	869.6569854541061	0.0	553.6438191801894	866.4167556131035	0.0	520.3845057633547	1044.8424449885988	0.0	495.70939107118363	1234.8307728826067	0.0	480.5438203276919	1285.0492343191393	0.0	451.9895708673269	1257.147596164794	0.0	521.5568080614	1094.60896414795	0.0	679.6896372400124	880.3724649885929	0.0	670.1570216994324	1099.7589624231891	0.0	654.9979916394092	1327.0296178192707	0.0	671.1692427498201	1396.827808069894	0.0	706.970337993511	1390.7650754808958	0.0	642.7082475919847	1357.5985698400134	0.0	638.8465131465967	556.5627175581675	0.0	630.189115312228	401.0963402268782	0.0	615.9455807203689	516.3733196484496	0.0	539.2896556458079	573.9753583292089	0.0	464.70647862316457	720.4632641020944	0.0	383.4618991395192	838.7439549947932	0.0	746.1629639917159	581.2431620955867	0.0	777.7997168106908	736.5251866259571	0.0	792.3971813826477	852.7287547923432	0.0
267	8.925141242937853	612.6006882768714	871.0862049899124	0.0	553.0693550455669	866.6833853711665	0.0	521.5458211309857	1040.8470281302048	0.0	500.0698523132984	1126.6694046445434	0.0	488.19628073823986	1170.3517812760867	0.0	455.8537614551102	1144.3235504349575	0.0	523.4864350133398	1014.7153528897098	0.0	679.9116359024457	881.8593113553433	0.0	670.7724695622777	1100.474146162348	0.0	654.9105965029322	1326.9128349716893	0.0	672.0057438539906	1397.2663125798585	0.0	706.1619210189281	1390.7578748615579	0.0	641.5054666836389	1357.8368145511442	0.0	636.1943497480748	556.5574906711505	0.0	625.8567296486783	401.83240971853775	0.0	615.2955356418723	517.1879969811272	0.0	537.2984136383805	575.4974294605706	0.0	463.4428010176494	720.629208773395	0.0	382.3637360420553	839.0916146754122	0.0	743.4216575550163	580.4860638294642	0.0	776.313288094443	736.1538255421995	0.0	793.1509430490246	854.5891955508607	0.0
268	8.958568738229756	612.7442103062896	871.1119560698615	0.0	553.3550088919908	867.5876179018272	0.0	522.5972466601883	1039.4259573902223	0.0	504.2040043221937	1052.9321639253521	0.0	495.2183238542814	1088.5897518211048	0.0	463.02740575355324	1069.619291938728	0.0	524.7459209214423	1015.9867436249368	0.0	679.438742235568	882.4677504023394	0.0	670.6654347217509	1100.478292564963	0.0	655.011914200567	1326.5966664817565	0.0	674.1468337454452	1398.2565311050625	0.0	706.6100764410136	1390.5453422900162	0.0	640.2417292278348	1358.0939855092222	0.0	633.0223881489809	556.5201743159686	0.0	621.6927242807839	402.41596601827445	0.0	614.7381217308587	517.6991438992037	0.0	534.3927540109771	577.3705197692544	0.0	461.98931571863704	721.0569666865193	0.0	381.44437044743165	839.1563627012756	0.0	740.5294739785238	579.0408094195687	0.0	774.3032850334944	735.936397173367	0.0	793.4699908556822	854.8980076080779	0.0
269	8.991996233521657	613.0067141007745	870.9699262066216	0.0	553.9518109735993	870.5412645648017	0.0	523.2548924983638	1043.0799910631504	0.0	507.9063468690713	1029.3891547221938	0.0	501.946096959292	1061.3087166108185	0.0	472.8511338772584	1042.7626848960988	0.0	526.717640032269	1035.6523566201352	0.0	678.0430304424532	883.1435424604847	0.0	670.1392092931181	1100.5998336685072	0.0	655.3359416339047	1326.19741398301	0.0	676.5602116872567	1399.1814540447465	0.0	708.5003963733516	1390.1813254834058	0.0	639.8816800204407	1357.9934060989835	0.0	630.058851315309	556.4323240113948	0.0	617.2274741323242	402.7633298095863	0.0	610.3312811687957	517.5484552006724	0.0	529.9498349002416	579.418720386672	0.0	458.73744640442874	723.588353137213	0.0	379.5950020746051	841.1038535451274	0.0	737.7955499401854	577.5354712307085	0.0	773.1209342331841	735.774891592136	0.0	793.7808423492463	854.7246571387702	0.0
270	9.02542372881356	613.0419395070711	871.3380990297362	0.0	554.2027790161395	874.0565723911642	0.0	523.0847503253598	1053.0514179777708	0.0	509.74011946330046	1025.6802402429757	0.0	505.7726382049361	1062.6851456811323	0.0	482.79436164979563	1035.9619718680185	0.0	528.5053517592793	1031.0648462551706	0.0	675.8114933326024	883.545459306736	0.0	669.3690670201204	1100.702143089546	0.0	655.2340870631605	1325.3453709015153	0.0	677.3236710313298	1399.5578230694675	0.0	709.8844913245455	1389.7037249163527	0.0	639.6523596853714	1357.3427463854034	0.0	626.8359515153921	556.0232027144116	0.0	611.7620457173135	403.4992677065564	0.0	603.1853581188905	517.8161103168351	0.0	524.820363645395	581.4658366833715	0.0	454.3069362421084	727.3611539459969	0.0	377.2550061383316	843.8826645141795	0.0	734.3400561687837	576.1533198913096	0.0	773.2872976041544	734.8792045492089	0.0	793.9060140610784	855.7910542715791	0.0
271	9.058851224105462	612.532472650991	871.9833493033675	0.0	553.667466783814	876.0799049838561	0.0	522.5110906866945	1064.9060262803998	0.0	509.46002812025284	1046.9415817986774	0.0	504.67511010598366	1095.6874646432852	0.0	490.1238985979298	1059.46082398754	0.0	529.0228557256579	1012.9764048215998	0.0	673.3660559681583	883.1390646438175	0.0	668.4266689959461	1100.1971499172625	0.0	654.4162434368291	1324.2027183662003	0.0	676.3279732500605	1399.129598593757	0.0	709.4678204841701	1389.068742047944	0.0	638.599878527692	1356.6631892462115	0.0	622.0845539137698	555.1899738186462	0.0	605.4378353177929	404.8883667201807	0.0	596.5135673643637	518.9570753220535	0.0	519.8853806231314	583.7106176990391	0.0	450.02646442840586	730.6176602920691	0.0	375.1069371970338	845.347441959799	0.0	729.339515155171	574.0759825540982	0.0	774.0554939265082	733.0007163345523	0.0	793.8709795855617	858.0006764800856	0.0
